<svg class="emborder-inner" id="emborder-inner-left" fill="#f8fafd" width="33" height="152" xmlns="http://www.w3.org/2000/svg" xmlns:xlink="http://www.w3.org/1999/xlink"><path d="M8,17.2l10,10v-8.5L8,8.6v9.3V17.2z M19,18.3v21.6h-1V28.6l-10-10v39.7l-1,0.4V7.6L0,0.7L0.7,0L19,18.3 M27,81.9l-6-6l6-6l6,6L27,81.9z M7,93l10.7-10.7L12,76.5L0.7,88L0,87.3l11.3-11.4L0,64.7L0.7,64L12,75.2l5.8-5.8L7,58.7l0.8-0.6l11.3,11.3l0,0l0,0l-6.4,6.5l6.5,6.5l0,0l0,0L8,93.7v39.5l10-10v-11.3h1v21.7l-1-0.4v-8.6l-10,10v8.6l10-10l1,0.4L0.7,152L0,151.3l7.3-7.3L7,144.3V93M27,80.5l4.6-4.6L27,71.3l-4.6,4.6L27,80.5"/></svg>