<svg class="emborder-middle" id="emborder-middle-left" fill="#f8fafd" width="28" height="152" xmlns="http://www.w3.org/2000/svg" xmlns:xlink="http://www.w3.org/1999/xlink"><path d="M11,17.9V8.6L1,18.7v8.5l10-10V17.9z M0,18.3L18.3,0L19,0.7l-7,6.9v51.1l-1-0.4V18.6l-10,10v11.3H0V18.3 M16,75.9l6-6l6,6l-6,6L16,75.9z M12,93v51.3l-0.3-0.3l7.3,7.3l-0.7,0.7L0,133.6l1-0.4l10,10v-8.6l-10-10v8.6l-1,0.4v-21.7h1v11.3l10,10V93.7L-0.2,82.4l0,0l0,0l6.5-6.5l-6.4-6.5l0,0l0,0l11.3-11.3l0.8,0.6L1.2,69.4L7,75.2L18.3,64l0.7,0.7L7.7,75.9L19,87.3L18.3,88L7,76.5l-5.7,5.8L12,93 M22,80.5l4.6-4.6L22,71.3l-4.6,4.6L22,80.5"/></svg>