<svg class="emborder-middle" id="emborder-middle-right" fill="#f8fafd" width="28" height="152" xmlns="http://www.w3.org/2000/svg" xmlns:xlink="http://www.w3.org/1999/xlink"><path d="M17,17.2l10,10v-8.5L17,8.6v9.3V17.2z M28,18.3v21.6h-1V28.6l-10-10v39.7l-1,0.4V7.6L9,0.7L9.7,0L28,18.3 M16,93l10.7-10.7L21,76.5L9.7,88L9,87.3l11.3-11.4L9,64.7L9.7,64L21,75.2l5.8-5.8L16,58.7l0.8-0.6l11.3,11.3l0,0l0,0l-6.4,6.5l6.5,6.5l0,0l0,0L17,93.7v39.5l10-10v-11.3h1v21.7l-1-0.4v-8.6l-10,10v8.6l10-10l1,0.4L9.7,152L9,151.3l7.3-7.3l-0.3,0.3V93 M6,82l-6-6l6-6l6,6L6,82z M6,80.6l4.6-4.6L6,71.4L1.4,76L6,80.6"/></svg>