<svg class="footer" id="footer-projects" fill="#afb0b3" width="251" height="111" xmlns="http://www.w3.org/2000/svg" xmlns:xlink="http://www.w3.org/1999/xlink">
	<path  d="M125.5,51.2c5.5,0,10,4.5,10,10c0,5.5-4.5,10-10,10c-5.5,0-10-4.5-10-10C115.5,55.7,120,51.2,125.5,51.2M125.5,89.6l9.6,9.6l-9.6,9.6l-9.6-9.6L125.5,89.6 M149.2,0.8l-23.7,23.7L101.8,0.8l-0.7,0.7l23.6,23.6L110,40L85,15l0,0l0,0l-0.6,0.6l-0.1,0.1l0,0L75,25L50.9,0.8l-0.7,0.7l24.1,24.1L64,36L53,25l0,0l0,0L41.3,36.7l0,0l0,0L53,48.4l0,0l0,0l11-11l24.3,24.3l-14,14l0,0l0,0L89,90.4l0,0l0,0l14.7-14.7l0,0l0,0l-14-14l11-11l0,0l0,0l-25-25l9.3-9.3l24.9,24.9l0.1,0.1l0.6-0.6l0.1-0.1l0,0l14.8-14.8L141,41.4l0,0l0,0l24.9-25l9.3,9.3l-25,25l0,0l0,0l11,11l-14,14l0,0l0,0L162,90.4l0,0l0,0l14.7-14.7l0,0l0,0l-14-14L187,37.4l11,11l0,0l0,0l11.7-11.7l0,0l0,0L198,25l0,0l0,0l-11,11l-10.3-10.3l24.1-24.1l-0.7-0.7L176,25l-9.3-9.3l0,0l-0.1-0.1L166,15l0,0l0,0l-25,25l-14.8-14.8l23.6-23.6L149.2,0.8L149.2,0.8z M198,47l-10.3-10.3L198,26.4l10.3,10.3L198,47L198,47z M162,61l-10.3-10.3L176,26.4l10.3,10.3L162,61L162,61z M53,47L42.7,36.7L53,26.4l10.3,10.3L53,47L53,47z M89,61L64.7,36.7L75,26.4l24.3,24.3L89,61L89,61z M162,89l-13.3-13.3L162,62.4l13.3,13.3L162,89L162,89z M89,89L75.7,75.7L89,62.4l13.3,13.3L89,89L89,89zM249.1,0.8L240,10l-9.1-9.1l-0.7,0.7l9.8,9.8l0,0l0,0l9.8-9.8L249.1,0.8L249.1,0.8z M20.1,0.8L11,10L1.9,0.8L1.1,1.5l9.8,9.8l0,0l0,0l9.8-9.8L20.1,0.8L20.1,0.8z M125.5,50.2c-6.1,0-11,4.9-11,11c0,6.1,4.9,11,11,11c6.1,0,11-4.9,11-11C136.5,55.1,131.6,50.2,125.5,50.2L125.5,50.2z M125.5,88.2l-11,11l11,11l11-11L125.5,88.2L125.5,88.2z"/>
</svg>