<svg class="header" id="header-projects" fill="#afb0b3" width="605" height="188" xmlns="http://www.w3.org/2000/svg" xmlns:xlink="http://www.w3.org/1999/xlink">
    <path d="M290,11.6l4.1,4.1l-4.1,4.1l-4.1-4.1L290,11.6 M315,11.6l4.1,4.1l-4.1,4.1l-4.1-4.1L315,11.6 M388.1,27l23.4,24.6v0.2L388.1,75H216.9l-23.4-23.2v-0.2L216.9,27h171.6 M599,48.6l3.1,3.1l-3.1,3.1l-3.1-3.1L599,48.6 M6,48.6l3.1,3.1L6,54.8l-3.1-3.1L6,48.6 M497,66.6l2.1,2.1l-2.1,2.1l-2.1-2.1L497,66.6 M108,66.6l2.1,2.1l-2.1,2.1l-2.1-2.1L108,66.6 M424.1,69l-13,13h-10.2l13-13h10.6 M191.1,69l13,13h-10.2l-13-13h10.6 M315,10.2l-5.5,5.5l5.5,5.5l5.5-5.5L315,10.2L315,10.2z M290,10.2l-5.5,5.5l5.5,5.5l5.5-5.5L290,10.2L290,10.2z M388.5,26h-172l-24,25.2v1l24,23.8h172l24-23.8v-1L388.5,26L388.5,26z M599,47.2l-4.5,4.5l4.5,4.5l4.5-4.5L599,47.2L599,47.2z M6,47.2l-4.5,4.5L6,56.2l4.5-4.5L6,47.2L6,47.2z M497,65.2l-3.5,3.5l3.5,3.5l3.5-3.5L497,65.2L497,65.2z M108,65.2l-3.5,3.5l3.5,3.5l3.5-3.5L108,65.2L108,65.2z M426.5,68h-13l-15,15h13L426.5,68L426.5,68z M191.5,68h-13l15,15h13L191.5,68L191.5,68z"/>
    <path d="M191.5,69h-81v-1h81V69z M193.5,51H9.5v1h184V51z M290.5,26.5l11.3-11.3l-6.6-6.6l0,0l-0.4-0.4l0.3-0.3l7-7l0,0l0.4-0.4l7.4,7.4l0,0l0.4,0.4l-7,7l11.3,11.3l-0.7,0.7l-11.3-11.3l-11.3,11.3L290.5,26.5z M302.5,14.5l6.3-6.3l-6.3-6.3l-6.3,6.3L302.5,14.5z M407,177L407,177l-9.9,9.8l0.7,0.7l9.1-9.1l9.1,9.1l0.7-0.7L407,177L407,177z M411.5,51v1h184v-1H411.5z M413.5,69h81v-1h-81V69z M198,177L198,177l-9.9,9.8l0.7,0.7l9.1-9.1l9.1,9.1l0.7-0.7L198,177L198,177z M386.7,103.7L386.7,103.7L386.7,103.7L375,115.4l0,0l0,0l-11-11l-11.1,11.1l-0.7-0.7l11.1-11.1L353,93.4l-21.3,21.3l11,11l0,0l0,0l-28.5,28.5l32.6,32.6l-0.7,0.7l-32.6-32.6l-4.8,4.8l27.1,27.1l-0.7,0.7l-27.8-27.8l0,0l0,0l5.5-5.5l-10.3-10.3l-10.3,10.3l5.5,5.5l0,0l0,0l-27.8,27.8l-0.7-0.7l27.1-27.1l-4.8-4.8l-32.6,32.6l-0.7-0.7l32.6-32.6l-28.5-28.5l0.4-0.4l0,0l10.6-10.6L252,93.4l-10.3,10.3l11.1,11.1l-0.7,0.7L241,104.4L230.4,115l0,0l-0.4,0.4l-11.7-11.7l0.7-0.7l0,0l11-11l0.4,0.4l0,0L241,103l10.3-10.3l-9.7-9.7h-36.1v-1h37v0.5L252,92l9.6-9.6l0,0l0.2-0.2l25,25l14.9-14.9l-16.2-16.2l0.7-0.7l16.3,16.3l16.3-16.3l0.7,0.7l-16.2,16.2l14.9,14.9l25-25l0.7,0.7l0,0L353,92l9.5-9.5V82h0.5l0,0l0,0h36.5v1h-36.1l-9.7,9.7L364,103l11-11l0,0l0,0L386.7,103.7z M240.3,103.7L230,93.4l-10.3,10.3L230,114L240.3,103.7z M352.3,92.7l-9.2-9.2l-24.3,24.3l0,0l-0.7,0.7l-15.7-15.7l-15.7,15.7l-0.4-0.5l-24.5-24.5l-9.1,9.1l22,22l-0.4,0.4l0,0l-10.6,10.6l27.8,27.8l10.3-10.3l-15-15l0.4-0.4l0,0l15.4-15.3l0.4,0.4l0,0l15.4,15.4l-0.4,0.4l0,0l-14.6,14.6l10.3,10.3l27.8-27.8l-11-11l0,0l0,0L352.3,92.7z M288.2,128.2l14.3,14.3l14.3-14.3l-14.3-14.3L288.2,128.2zM364.7,103.7L375,114l10.3-10.3L375,93.4L364.7,103.7z"/>
</svg>