<svg class="emborder-inner" id="emborder-inner-right" fill="#f8fafd" width="33" height="152" xmlns="http://www.w3.org/2000/svg" xmlns:xlink="http://www.w3.org/1999/xlink"><path d="M25,17.9V8.6L15,18.7v8.5l10-10V17.9z M14,18.3L32.3,0L33,0.7l-7,6.9v51.1l-1-0.4V18.6l-10,10v11.3h-1V18.3 M0,75.9l6-6l6,6l-6,6L0,75.9z M26,93v51.3l-0.3-0.3l7.3,7.3l-0.7,0.7L14,133.6l1-0.4l10,10v-8.6l-10-10v8.6l-1,0.4v-21.7h1v11.3l10,10V93.7L13.8,82.4l0,0l0,0l6.5-6.5l-6.4-6.5l0,0l0,0l11.3-11.3l0.8,0.6L15.2,69.4l5.8,5.8L32.3,64l0.7,0.7L21.7,75.9L33,87.3L32.3,88L21,76.5l-5.7,5.8L26,93 M6,80.5l4.6-4.6L6,71.3l-4.6,4.6L6,80.5"/></svg>